<svg width="32" height="32" viewBox="0 0 32 32" fill="none" xmlns="http://www.w3.org/2000/svg">
<path d="M27.5999 0.333496H9.53325V31.6668H27.6666C28.2666 31.6668 28.7332 31.2002 28.7332 30.6002V1.40016C28.7332 0.800163 28.1999 0.333496 27.5999 0.333496ZM21.9999 10.9335C21.9999 11.5335 21.5999 12.0002 21.0666 12.2002C19.5333 12.7335 18.4666 14.1335 18.4666 15.8002V16.2002C18.4666 17.8668 19.5333 19.3335 21.0666 19.8002C21.5999 20.0002 21.9999 20.4668 21.9999 21.0668V24.6668C21.9999 25.6002 21.0666 26.2668 20.1999 25.8668L19.3333 25.6002C16.6666 24.5335 14.9333 21.6668 14.9333 19.0002V13.1335C14.9333 10.4668 16.6666 7.5335 19.3333 6.5335L20.1999 6.20016C21.0666 5.7335 21.9999 6.40016 21.9999 7.3335V10.9335ZM7.19992 31.6668V0.333496H4.39992C3.79992 0.333496 3.33325 0.800163 3.33325 1.40016V30.5335C3.33325 31.1335 3.79992 31.6002 4.39992 31.6002H7.19992V31.6668Z" fill="#D1D1D1"/>
</svg>
