<svg width="32" height="32" viewBox="0 0 32 32" fill="none" xmlns="http://www.w3.org/2000/svg">
<path d="M18.5161 15.9806C17.771 16.5225 16.8903 16.7839 16 16.7839C15.1194 16.7839 14.229 16.5129 13.4645 15.9709L1.19354 7.15479C1.06775 7.50318 1 7.87092 1 8.25807V23.742C1 25.6097 2.51935 27.129 4.38708 27.129H27.6129C29.4806 27.129 31 25.6097 31 23.742V8.25807C31 7.94838 30.9613 7.64839 30.8742 7.35805L18.5161 15.9806Z" fill="#D1D1D1"/>
<path d="M4.3872 4.87109C4.00012 4.87109 3.61304 4.93884 3.26465 5.07428L15.1582 13.6195C15.6614 13.9775 16.3388 13.9775 16.842 13.6098L25.2034 7.7743L28.9582 5.15168C28.542 4.96784 28.0872 4.8711 27.613 4.8711H4.3872V4.87109Z" fill="#D1D1D1"/>
</svg>
