<svg width="32" height="32" viewBox="0 0 32 32" fill="none" xmlns="http://www.w3.org/2000/svg">
<path d="M15.9994 2C14.9733 2 13.9466 2.39644 13.1655 3.17769L5.24794 11.2789C3.73883 12.7882 2.84741 13.6886 2.40629 14.9116C1.97396 16.1102 2.00006 17.5098 2.00006 20.0051V25.9971C2.00006 28.223 3.80339 29.9989 6.00181 29.9989H9.99965L9.9977 21.9973C9.99627 19.7986 11.7814 17.9994 14.0034 17.9994H17.9953C20.2174 17.9994 22.0024 19.7986 22.001 21.9973L21.999 29.9989H25.9969C28.1953 29.9989 29.9986 28.223 29.9986 25.9971V20.0051C29.9986 17.5098 30.0247 16.1102 29.5924 14.9116C29.1513 13.6886 28.2599 12.7882 26.7508 11.2789L18.8332 3.17769C18.0521 2.39644 17.0254 2 15.9994 2ZM14.0034 20.0012C12.9016 20.0012 11.9992 20.872 11.9996 21.9973L12.0016 29.9989H19.9972L19.9992 21.9973C19.9996 20.872 19.0972 20.0012 17.9954 20.0012H14.0034Z" fill="#4F45B6"/>
</svg>
